{
  "source": "C:\\Users\\Peter\\Desktop\\stuff\\MIUN\\quantitative_research\\video_compression\\videos\\HEVC_CLASS_B\\BasketballDrive_1920x1080_50.y4m",
  "output": "C:\\Users\\Peter\\Desktop\\stuff\\MIUN\\quantitative_research\\video_compression\\compressed_videos\\HEVC_CLASS_B\\vp9\\1\\BasketballDrive_1920x1080_50_vp9.webm",
  "codec": "vp9",
  "ok": "Input #0, yuv4mpegpipe, from 'C:\\Users\\Peter\\Desktop\\stuff\\MIUN\\quantitative_research\\video_compression\\videos\\HEVC_CLASS_B\\BasketballDrive_1920x1080_50.y4m':\n  Duration: 00:00:10.00, start: 0.000000, bitrate: 1244162 kb/s\n  Stream #0:0: Video: rawvideo (I420 / 0x30323449), yuv420p(progressive), 1920x1080, 50 fps, 50 tbr, 50 tbn\n[out#0/webm @ 000002ed23c29a40] Codec AVOption b:a (set bitrate (in bits/s)) has not been used for any stream. The most likely reason is either wrong type (e.g. a video option with no video streams) or that it is a private option of some decoder which was not actually used for any stream.\nStream mapping:\n  Stream #0:0 -> #0:0 (rawvideo (native) -> vp9 (libvpx-vp9))\nPress [q] to stop, [?] for help\n[libvpx-vp9 @ 000002ed23c2ce40] v1.15.2-100-g40561f514\nOutput #0, webm, to 'C:\\Users\\Peter\\Desktop\\stuff\\MIUN\\quantitative_research\\video_compression\\compressed_videos\\HEVC_CLASS_B\\vp9\\1\\BasketballDrive_1920x1080_50_vp9.webm':\n  Metadata:\n    encoder         : Lavf62.3.100\n  Stream #0:0: Video: vp9, yuv420p(tv, progressive), 1920x1080, q=2-31, 1000 kb/s, 50 fps, 1k tbn\n    Metadata:\n      encoder         : Lavc62.11.100 libvpx-vp9\n    Side data:\n      cpb: bitrate max/min/avg: 0/0/0 buffer size: 1000000 vbv_delay: N/A\nframe=    1 fps=0.0 q=42.0 size=       0KiB time=N/A bitrate=N/A speed=N/A elapsed=0:00:00.51    \nframe=    5 fps=3.2 q=63.0 size=       0KiB time=00:00:00.08 bitrate=  48.2kbits/s speed=0.0512x elapsed=0:00:01.56    \nframe=    8 fps=3.7 q=63.0 size=       0KiB time=00:00:00.14 bitrate=  27.5kbits/s speed=0.065x elapsed=0:00:02.15    \nframe=   11 fps=3.7 q=62.0 size=       0KiB time=00:00:00.20 bitrate=  19.3kbits/s speed=0.0666x elapsed=0:00:03.00    \nframe=   12 fps=3.3 q=55.0 size=       0KiB time=00:00:00.22 bitrate=  17.5kbits/s speed=0.0605x elapsed=0:00:03.63    \nframe=   15 fps=3.4 q=61.0 size=       0KiB time=00:00:00.28 bitrate=  13.8kbits/s speed=0.0636x elapsed=0:00:04.40    \nframe=   17 fps=3.2 q=60.0 size=       0KiB time=00:00:00.32 bitrate=  12.1kbits/s speed=0.0597x elapsed=0:00:05.36    \nframe=   20 fps=3.2 q=60.0 size=       0KiB time=00:00:00.40 bitrate=   9.6kbits/s speed=0.0645x elapsed=0:00:06.20    \nframe=   22 fps=3.3 q=60.0 size=       0KiB time=00:00:00.44 bitrate=   8.8kbits/s speed=0.0653x elapsed=0:00:06.74    \nframe=   22 fps=3.0 q=60.0 size=       0KiB time=00:00:00.44 bitrate=   8.8kbits/s speed=0.0598x elapsed=0:00:07.35    \nframe=   25 fps=3.1 q=60.0 size=       0KiB time=00:00:00.50 bitrate=   7.7kbits/s speed=0.0627x elapsed=0:00:07.98    \nframe=   28 fps=3.2 q=62.0 size=       0KiB time=00:00:00.54 bitrate=   7.1kbits/s speed=0.0622x elapsed=0:00:08.68    \nframe=   30 fps=3.2 q=62.0 size=       0KiB time=00:00:00.60 bitrate=   6.4kbits/s speed=0.064x elapsed=0:00:09.37    \nframe=   31 fps=3.1 q=62.0 size=       0KiB time=00:00:00.62 bitrate=   6.2kbits/s speed=0.0625x elapsed=0:00:09.91    \nframe=   32 fps=3.1 q=62.0 size=       0KiB time=00:00:00.64 bitrate=   6.0kbits/s speed=0.0611x elapsed=0:00:10.47    \nframe=   33 fps=3.0 q=62.0 size=       0KiB time=00:00:00.66 bitrate=   5.8kbits/s speed=0.06x elapsed=0:00:11.00    \nframe=   36 fps=3.1 q=61.0 size=       0KiB time=00:00:00.72 bitrate=   5.4kbits/s speed=0.0624x elapsed=0:00:11.54    \nframe=   37 fps=3.1 q=62.0 size=       0KiB time=00:00:00.74 bitrate=   5.2kbits/s speed=0.0612x elapsed=0:00:12.09    \nframe=   39 fps=3.1 q=62.0 size=       0KiB time=00:00:00.78 bitrate=   4.9kbits/s speed=0.0614x elapsed=0:00:12.69    \nframe=   41 fps=3.1 q=62.0 size=       0KiB time=00:00:00.82 bitrate=   4.7kbits/s speed=0.0616x elapsed=0:00:13.31    \nframe=   43 fps=3.1 q=62.0 size=       0KiB time=00:00:00.86 bitrate=   4.5kbits/s speed=0.0618x elapsed=0:00:13.92    \nframe=   45 fps=3.1 q=62.0 size=       0KiB time=00:00:00.90 bitrate=   4.3kbits/s speed=0.0616x elapsed=0:00:14.60    \nframe=   45 fps=3.0 q=62.0 size=       0KiB time=00:00:00.90 bitrate=   4.3kbits/s speed=0.0594x elapsed=0:00:15.14    \nframe=   47 fps=3.0 q=63.0 size=       0KiB time=00:00:00.94 bitrate=   4.1kbits/s speed=0.0599x elapsed=0:00:15.70    \nframe=   50 fps=3.1 q=63.0 size=       0KiB time=00:00:00.98 bitrate=   3.9kbits/s speed=0.06x elapsed=0:00:16.34    \nframe=   51 fps=3.0 q=63.0 size=       0KiB time=00:00:01.02 bitrate=   3.8kbits/s speed=0.0596x elapsed=0:00:17.11    \nframe=   51 fps=2.9 q=63.0 size=       0KiB time=00:00:01.02 bitrate=   3.8kbits/s speed=0.0578x elapsed=0:00:17.63    \nframe=   52 fps=2.9 q=54.0 size=       0KiB time=00:00:01.04 bitrate=   3.7kbits/s speed=0.0573x elapsed=0:00:18.14    \nframe=   53 fps=2.8 q=63.0 size=       0KiB time=00:00:01.06 bitrate=   3.6kbits/s speed=0.0568x elapsed=0:00:18.66    \nframe=   55 fps=2.9 q=63.0 size=       0KiB time=00:00:01.10 bitrate=   3.5kbits/s speed=0.0573x elapsed=0:00:19.18    \nframe=   56 fps=2.8 q=63.0 size=       0KiB time=00:00:01.12 bitrate=   3.4kbits/s speed=0.0569x elapsed=0:00:19.69    \nframe=   57 fps=2.8 q=63.0 size=       0KiB time=00:00:01.14 bitrate=   3.4kbits/s speed=0.0564x elapsed=0:00:20.21    \nframe=   58 fps=2.8 q=54.0 size=       0KiB time=00:00:01.16 bitrate=   3.3kbits/s speed=0.056x elapsed=0:00:20.73    \nframe=   60 fps=2.8 q=63.0 size=       0KiB time=00:00:01.20 bitrate=   3.2kbits/s speed=0.0565x elapsed=0:00:21.23    \nframe=   61 fps=2.8 q=63.0 size=       0KiB time=00:00:01.22 bitrate=   3.2kbits/s speed=0.0561x elapsed=0:00:21.76    \nframe=   62 fps=2.8 q=63.0 size=       0KiB time=00:00:01.24 bitrate=   3.1kbits/s speed=0.0557x elapsed=0:00:22.27    \nframe=   63 fps=2.8 q=63.0 size=       0KiB time=00:00:01.26 bitrate=   3.1kbits/s speed=0.0553x elapsed=0:00:22.79    \nframe=   64 fps=2.7 q=54.0 size=       0KiB time=00:00:01.28 bitrate=   3.0kbits/s speed=0.0549x elapsed=0:00:23.30    \nframe=   66 fps=2.8 q=62.0 size=       0KiB time=00:00:01.32 bitrate=   2.9kbits/s speed=0.0554x elapsed=0:00:23.81    \nframe=   67 fps=2.8 q=63.0 size=       0KiB time=00:00:01.34 bitrate=   2.9kbits/s speed=0.0551x elapsed=0:00:24.33    \nframe=   69 fps=2.8 q=63.0 size=       0KiB time=00:00:01.38 bitrate=   2.8kbits/s speed=0.0555x elapsed=0:00:24.85    \nframe=   69 fps=2.7 q=63.0 size=       0KiB time=00:00:01.38 bitrate=   2.8kbits/s speed=0.0544x elapsed=0:00:25.37    \nframe=   69 fps=2.7 q=63.0 size=       0KiB time=00:00:01.38 bitrate=   2.8kbits/s speed=0.0533x elapsed=0:00:25.88    \nframe=   71 fps=2.7 q=62.0 size=       0KiB time=00:00:01.42 bitrate=   2.7kbits/s speed=0.0538x elapsed=0:00:26.39    \nframe=   74 fps=2.7 q=63.0 size=       0KiB time=00:00:01.48 bitrate=   2.6kbits/s speed=0.055x elapsed=0:00:26.92    \nframe=   75 fps=2.7 q=63.0 size=       0KiB time=00:00:01.52 bitrate=   2.5kbits/s speed=0.0554x elapsed=0:00:27.43    \nframe=   78 fps=2.8 q=62.0 size=       0KiB time=00:00:01.56 bitrate=   2.5kbits/s speed=0.0558x elapsed=0:00:27.95    \nframe=   80 fps=2.8 q=62.0 size=       0KiB time=00:00:01.60 bitrate=   2.4kbits/s speed=0.0562x elapsed=0:00:28.47    \nframe=   83 fps=2.9 q=63.0 size=       0KiB time=00:00:01.66 bitrate=   2.3kbits/s speed=0.0573x elapsed=0:00:28.99    \nframe=   85 fps=2.9 q=63.0 size=       0KiB time=00:00:01.70 bitrate=   2.3kbits/s speed=0.0576x elapsed=0:00:29.51    \nframe=   88 fps=2.9 q=63.0 size=       0KiB time=00:00:01.76 bitrate=   2.2kbits/s speed=0.0586x elapsed=0:00:30.02    \nframe=   90 fps=2.9 q=62.0 size=       0KiB time=00:00:01.80 bitrate=   2.1kbits/s speed=0.0589x elapsed=0:00:30.54    \nframe=   92 fps=3.0 q=62.0 size=       0KiB time=00:00:01.84 bitrate=   2.1kbits/s speed=0.0593x elapsed=0:00:31.05    \nframe=   94 fps=3.0 q=63.0 size=       0KiB time=00:00:01.88 bitrate=   2.1kbits/s speed=0.0596x elapsed=0:00:31.56    \nframe=   97 fps=3.0 q=63.0 size=       0KiB time=00:00:01.94 bitrate=   2.0kbits/s speed=0.0605x elapsed=0:00:32.08    \nframe=   98 fps=3.0 q=63.0 size=       0KiB time=00:00:01.96 bitrate=   2.0kbits/s speed=0.0601x elapsed=0:00:32.59    \nframe=  100 fps=3.0 q=63.0 size=       0KiB time=00:00:02.00 bitrate=   1.9kbits/s speed=0.0604x elapsed=0:00:33.11    \nframe=  102 fps=3.0 q=62.0 size=       0KiB time=00:00:02.04 bitrate=   1.9kbits/s speed=0.0606x elapsed=0:00:33.63    \nframe=  104 fps=3.0 q=63.0 size=       0KiB time=00:00:02.08 bitrate=   1.9kbits/s speed=0.0609x elapsed=0:00:34.15    \nframe=  106 fps=3.1 q=63.0 size=       0KiB time=00:00:02.12 bitrate=   1.8kbits/s speed=0.0612x elapsed=0:00:34.66    \nframe=  108 fps=3.1 q=63.0 size=       0KiB time=00:00:02.16 bitrate=   1.8kbits/s speed=0.0614x elapsed=0:00:35.17    \nframe=  110 fps=3.1 q=63.0 size=       0KiB time=00:00:02.20 bitrate=   1.8kbits/s speed=0.0616x elapsed=0:00:35.69    \nframe=  111 fps=3.1 q=54.0 size=       0KiB time=00:00:02.22 bitrate=   1.7kbits/s speed=0.0613x elapsed=0:00:36.21    \nframe=  114 fps=3.1 q=63.0 size=       0KiB time=00:00:02.28 bitrate=   1.7kbits/s speed=0.0621x elapsed=0:00:36.72    \nframe=  115 fps=3.1 q=62.0 size=       0KiB time=00:00:02.30 bitrate=   1.7kbits/s speed=0.0617x elapsed=0:00:37.25    \nframe=  117 fps=3.1 q=53.0 size=       0KiB time=00:00:02.34 bitrate=   1.6kbits/s speed=0.062x elapsed=0:00:37.75    \nframe=  120 fps=3.1 q=62.0 size=       0KiB time=00:00:02.40 bitrate=   1.6kbits/s speed=0.0627x elapsed=0:00:38.27    \nframe=  122 fps=3.1 q=63.0 size=       0KiB time=00:00:02.44 bitrate=   1.6kbits/s speed=0.0629x elapsed=0:00:38.79    \nframe=  124 fps=3.2 q=63.0 size=       0KiB time=00:00:02.48 bitrate=   1.6kbits/s speed=0.0631x elapsed=0:00:39.30    \nframe=  127 fps=3.2 q=63.0 size=       0KiB time=00:00:02.54 bitrate=   1.5kbits/s speed=0.0638x elapsed=0:00:39.81    \nframe=  128 fps=3.2 q=63.0 size=       0KiB time=00:00:02.56 bitrate=   1.5kbits/s speed=0.0635x elapsed=0:00:40.33    \nframe=  130 fps=3.2 q=63.0 size=     256KiB time=00:00:02.60 bitrate= 806.6kbits/s speed=0.0636x elapsed=0:00:40.85    \nframe=  132 fps=3.2 q=63.0 size=     256KiB time=00:00:02.64 bitrate= 794.4kbits/s speed=0.0638x elapsed=0:00:41.37    \nframe=  134 fps=3.2 q=63.0 size=     256KiB time=00:00:02.68 bitrate= 782.5kbits/s speed=0.064x elapsed=0:00:41.88    \nframe=  136 fps=3.2 q=62.0 size=     256KiB time=00:00:02.72 bitrate= 771.0kbits/s speed=0.0641x elapsed=0:00:42.40    \nframe=  139 fps=3.2 q=62.0 size=     256KiB time=00:00:02.78 bitrate= 754.4kbits/s speed=0.0648x elapsed=0:00:42.92    \nframe=  141 fps=3.2 q=53.0 size=     256KiB time=00:00:02.82 bitrate= 743.7kbits/s speed=0.0649x elapsed=0:00:43.43    \nframe=  144 fps=3.3 q=62.0 size=     256KiB time=00:00:02.88 bitrate= 728.2kbits/s speed=0.0655x elapsed=0:00:43.94    \nframe=  146 fps=3.3 q=63.0 size=     256KiB time=00:00:02.92 bitrate= 718.2kbits/s speed=0.0657x elapsed=0:00:44.45    \nframe=  147 fps=3.3 q=52.0 size=     256KiB time=00:00:02.94 bitrate= 713.3kbits/s speed=0.0654x elapsed=0:00:44.98    \nframe=  150 fps=3.3 q=63.0 size=     256KiB time=00:00:03.00 bitrate= 699.1kbits/s speed=0.0659x elapsed=0:00:45.49    \nframe=  152 fps=3.3 q=63.0 size=     256KiB time=00:00:03.04 bitrate= 689.9kbits/s speed=0.0661x elapsed=0:00:46.00    \nframe=  154 fps=3.3 q=63.0 size=     256KiB time=00:00:03.08 bitrate= 680.9kbits/s speed=0.0662x elapsed=0:00:46.52    \nframe=  156 fps=3.3 q=63.0 size=     256KiB time=00:00:03.12 bitrate= 672.2kbits/s speed=0.0663x elapsed=0:00:47.04    \nframe=  158 fps=3.3 q=63.0 size=     256KiB time=00:00:03.16 bitrate= 663.7kbits/s speed=0.0664x elapsed=0:00:47.56    \nframe=  159 fps=3.3 q=48.0 size=     256KiB time=00:00:03.18 bitrate= 659.5kbits/s speed=0.0662x elapsed=0:00:48.06    \nframe=  162 fps=3.3 q=62.0 size=     256KiB time=00:00:03.24 bitrate= 647.3kbits/s speed=0.0667x elapsed=0:00:48.58    \nframe=  166 fps=3.4 q=63.0 size=     256KiB time=00:00:03.32 bitrate= 631.7kbits/s speed=0.0676x elapsed=0:00:49.10    \nframe=  169 fps=3.4 q=63.0 size=     256KiB time=00:00:03.38 bitrate= 620.5kbits/s speed=0.0681x elapsed=0:00:49.62    \nframe=  172 fps=3.4 q=62.0 size=     256KiB time=00:00:03.44 bitrate= 609.6kbits/s speed=0.0686x elapsed=0:00:50.13    \nframe=  175 fps=3.5 q=63.0 size=     256KiB time=00:00:03.50 bitrate= 599.2kbits/s speed=0.0691x elapsed=0:00:50.64    \nframe=  178 fps=3.5 q=63.0 size=     256KiB time=00:00:03.56 bitrate= 589.1kbits/s speed=0.0695x elapsed=0:00:51.20    \nframe=  180 fps=3.5 q=63.0 size=     256KiB time=00:00:03.60 bitrate= 582.5kbits/s speed=0.0696x elapsed=0:00:51.73    \nframe=  182 fps=3.5 q=63.0 size=     256KiB time=00:00:03.64 bitrate= 576.1kbits/s speed=0.0697x elapsed=0:00:52.23    \nframe=  185 fps=3.5 q=62.0 size=     256KiB time=00:00:03.70 bitrate= 566.8kbits/s speed=0.0701x elapsed=0:00:52.76    \nframe=  188 fps=3.5 q=63.0 size=     256KiB time=00:00:03.76 bitrate= 557.8kbits/s speed=0.0705x elapsed=0:00:53.30    \nframe=  191 fps=3.5 q=62.0 size=     256KiB time=00:00:03.82 bitrate= 549.0kbits/s speed=0.0709x elapsed=0:00:53.84    \nframe=  192 fps=3.5 q=49.0 size=     256KiB time=00:00:03.84 bitrate= 546.1kbits/s speed=0.0706x elapsed=0:00:54.40    \nframe=  195 fps=3.5 q=61.0 size=     256KiB time=00:00:03.90 bitrate= 537.7kbits/s speed=0.071x elapsed=0:00:54.96    \nframe=  198 fps=3.6 q=62.0 size=     256KiB time=00:00:03.96 bitrate= 529.6kbits/s speed=0.0714x elapsed=0:00:55.48    \nframe=  201 fps=3.6 q=62.0 size=     256KiB time=00:00:04.02 bitrate= 521.7kbits/s speed=0.0718x elapsed=0:00:56.01    \nframe=  202 fps=3.6 q=62.0 size=     256KiB time=00:00:04.04 bitrate= 519.1kbits/s speed=0.0714x elapsed=0:00:56.56    \nframe=  205 fps=3.6 q=61.0 size=     256KiB time=00:00:04.10 bitrate= 511.5kbits/s speed=0.0718x elapsed=0:00:57.08    \nframe=  208 fps=3.6 q=63.0 size=     256KiB time=00:00:04.16 bitrate= 504.1kbits/s speed=0.0722x elapsed=0:00:57.61    \nframe=  211 fps=3.6 q=63.0 size=     256KiB time=00:00:04.22 bitrate= 497.0kbits/s speed=0.0726x elapsed=0:00:58.15    \nframe=  214 fps=3.6 q=56.0 size=     256KiB time=00:00:04.26 bitrate= 492.3kbits/s speed=0.0726x elapsed=0:00:58.68    \nframe=  217 fps=3.7 q=63.0 size=     256KiB time=00:00:04.34 bitrate= 483.2kbits/s speed=0.0732x elapsed=0:00:59.32    \nframe=  219 fps=3.7 q=63.0 size=     256KiB time=00:00:04.38 bitrate= 478.8kbits/s speed=0.0732x elapsed=0:00:59.86    \nframe=  221 fps=3.7 q=62.0 size=     256KiB time=00:00:04.42 bitrate= 474.5kbits/s speed=0.0732x elapsed=0:01:00.38    \nframe=  224 fps=3.7 q=62.0 size=     256KiB time=00:00:04.48 bitrate= 468.1kbits/s speed=0.0735x elapsed=0:01:00.94    \nframe=  226 fps=3.7 q=54.0 size=     256KiB time=00:00:04.52 bitrate= 464.0kbits/s speed=0.0735x elapsed=0:01:01.48    \nframe=  228 fps=3.7 q=61.0 size=     256KiB time=00:00:04.56 bitrate= 459.9kbits/s speed=0.0736x elapsed=0:01:01.98    \nframe=  230 fps=3.7 q=61.0 size=     256KiB time=00:00:04.60 bitrate= 455.9kbits/s speed=0.0735x elapsed=0:01:02.54    \nframe=  231 fps=3.7 q=60.0 size=     256KiB time=00:00:04.62 bitrate= 453.9kbits/s speed=0.0733x elapsed=0:01:03.05    \nframe=  233 fps=3.7 q=60.0 size=     256KiB time=00:00:04.66 bitrate= 450.0kbits/s speed=0.0733x elapsed=0:01:03.57    \nframe=  235 fps=3.7 q=60.0 size=     256KiB time=00:00:04.70 bitrate= 446.2kbits/s speed=0.0733x elapsed=0:01:04.09    \nframe=  237 fps=3.7 q=61.0 size=     256KiB time=00:00:04.74 bitrate= 442.4kbits/s speed=0.0734x elapsed=0:01:04.60    \nframe=  238 fps=3.7 q=51.0 size=     256KiB time=00:00:04.76 bitrate= 440.6kbits/s speed=0.0731x elapsed=0:01:05.11    \nframe=  240 fps=3.7 q=61.0 size=     256KiB time=00:00:04.80 bitrate= 436.9kbits/s speed=0.0731x elapsed=0:01:05.63    \nframe=  242 fps=3.7 q=61.0 size=     256KiB time=00:00:04.84 bitrate= 433.3kbits/s speed=0.0731x elapsed=0:01:06.16    \nframe=  243 fps=3.6 q=61.0 size=     256KiB time=00:00:04.86 bitrate= 431.5kbits/s speed=0.0729x elapsed=0:01:06.69    \nframe=  244 fps=3.6 q=51.0 size=     256KiB time=00:00:04.88 bitrate= 429.7kbits/s speed=0.0726x elapsed=0:01:07.21    \nframe=  246 fps=3.6 q=61.0 size=     256KiB time=00:00:04.92 bitrate= 426.3kbits/s speed=0.0727x elapsed=0:01:07.72    \nframe=  248 fps=3.6 q=62.0 size=     256KiB time=00:00:04.96 bitrate= 422.8kbits/s speed=0.0727x elapsed=0:01:08.24    \nframe=  249 fps=3.6 q=62.0 size=     256KiB time=00:00:04.98 bitrate= 421.1kbits/s speed=0.0724x elapsed=0:01:08.75    \nframe=  251 fps=3.6 q=61.0 size=     256KiB time=00:00:05.02 bitrate= 417.8kbits/s speed=0.0725x elapsed=0:01:09.26    \nframe=  253 fps=3.6 q=61.0 size=     256KiB time=00:00:05.06 bitrate= 414.5kbits/s speed=0.0725x elapsed=0:01:09.79    \nframe=  255 fps=3.6 q=61.0 size=     256KiB time=00:00:05.10 bitrate= 411.2kbits/s speed=0.0725x elapsed=0:01:10.29    \nframe=  256 fps=3.6 q=61.0 size=     256KiB time=00:00:05.12 bitrate= 409.6kbits/s speed=0.0723x elapsed=0:01:10.81    \nframe=  256 fps=3.6 q=61.0 size=     256KiB time=00:00:05.12 bitrate= 409.6kbits/s speed=0.0718x elapsed=0:01:11.33    \nframe=  259 fps=3.6 q=61.0 size=     512KiB time=00:00:05.18 bitrate= 809.7kbits/s speed=0.0721x elapsed=0:01:11.85    \nframe=  261 fps=3.6 q=62.0 size=     512KiB time=00:00:05.22 bitrate= 803.5kbits/s speed=0.0721x elapsed=0:01:12.36    \nframe=  262 fps=3.6 q=62.0 size=     512KiB time=00:00:05.24 bitrate= 800.4kbits/s speed=0.0719x elapsed=0:01:12.88    \nframe=  264 fps=3.6 q=62.0 size=     512KiB time=00:00:05.28 bitrate= 794.4kbits/s speed=0.0719x elapsed=0:01:13.39    \nframe=  266 fps=3.6 q=61.0 size=     512KiB time=00:00:05.32 bitrate= 788.4kbits/s speed=0.072x elapsed=0:01:13.91    \nframe=  268 fps=3.6 q=62.0 size=     512KiB time=00:00:05.36 bitrate= 782.5kbits/s speed=0.072x elapsed=0:01:14.43    \nframe=  268 fps=3.6 q=62.0 size=     512KiB time=00:00:05.36 bitrate= 782.5kbits/s speed=0.0715x elapsed=0:01:14.96    \nframe=  271 fps=3.6 q=61.0 size=     512KiB time=00:00:05.42 bitrate= 773.9kbits/s speed=0.0718x elapsed=0:01:15.47    \nframe=  273 fps=3.6 q=61.0 size=     512KiB time=00:00:05.46 bitrate= 768.2kbits/s speed=0.0718x elapsed=0:01:15.99    \nframe=  274 fps=3.6 q=60.0 size=     512KiB time=00:00:05.48 bitrate= 765.4kbits/s speed=0.0716x elapsed=0:01:16.50    \nframe=  275 fps=3.6 q=51.0 size=     512KiB time=00:00:05.50 bitrate= 762.6kbits/s speed=0.0714x elapsed=0:01:17.01    \nframe=  277 fps=3.6 q=60.0 size=     512KiB time=00:00:05.54 bitrate= 757.1kbits/s speed=0.0714x elapsed=0:01:17.54    \nframe=  279 fps=3.6 q=61.0 size=     512KiB time=00:00:05.58 bitrate= 751.7kbits/s speed=0.0715x elapsed=0:01:18.05    \nframe=  280 fps=3.6 q=62.0 size=     512KiB time=00:00:05.60 bitrate= 749.0kbits/s speed=0.0713x elapsed=0:01:18.56    \nframe=  282 fps=3.6 q=62.0 size=     512KiB time=00:00:05.64 bitrate= 743.7kbits/s speed=0.0713x elapsed=0:01:19.08    \nframe=  284 fps=3.6 q=62.0 size=     512KiB time=00:00:05.68 bitrate= 738.4kbits/s speed=0.0714x elapsed=0:01:19.60    \nframe=  286 fps=3.6 q=62.0 size=     512KiB time=00:00:05.72 bitrate= 733.3kbits/s speed=0.0714x elapsed=0:01:20.12    \nframe=  286 fps=3.5 q=62.0 size=     512KiB time=00:00:05.72 bitrate= 733.3kbits/s speed=0.0709x elapsed=0:01:20.63    \nframe=  288 fps=3.5 q=62.0 size=     512KiB time=00:00:05.76 bitrate= 728.2kbits/s speed=0.071x elapsed=0:01:21.14    \nframe=  290 fps=3.6 q=62.0 size=     512KiB time=00:00:05.80 bitrate= 723.2kbits/s speed=0.071x elapsed=0:01:21.66    \nframe=  291 fps=3.5 q=62.0 size=     512KiB time=00:00:05.82 bitrate= 720.7kbits/s speed=0.0708x elapsed=0:01:22.17    \nframe=  292 fps=3.5 q=62.0 size=     512KiB time=00:00:05.84 bitrate= 718.2kbits/s speed=0.0706x elapsed=0:01:22.68    \nframe=  294 fps=3.5 q=62.0 size=     512KiB time=00:00:05.88 bitrate= 713.3kbits/s speed=0.0707x elapsed=0:01:23.21    \nframe=  296 fps=3.5 q=62.0 size=     512KiB time=00:00:05.92 bitrate= 708.5kbits/s speed=0.0707x elapsed=0:01:23.73    \nframe=  297 fps=3.5 q=62.0 size=     512KiB time=00:00:05.94 bitrate= 706.1kbits/s speed=0.0705x elapsed=0:01:24.26    \nframe=  298 fps=3.5 q=62.0 size=     512KiB time=00:00:05.96 bitrate= 703.7kbits/s speed=0.0703x elapsed=0:01:24.78    \nframe=  299 fps=3.5 q=52.0 size=     512KiB time=00:00:05.98 bitrate= 701.4kbits/s speed=0.0701x elapsed=0:01:25.30    \nframe=  301 fps=3.5 q=61.0 size=     512KiB time=00:00:06.02 bitrate= 696.7kbits/s speed=0.0702x elapsed=0:01:25.81    \nframe=  302 fps=3.5 q=63.0 size=     512KiB time=00:00:06.04 bitrate= 694.4kbits/s speed=0.07x elapsed=0:01:26.33    \nframe=  304 fps=3.5 q=63.0 size=     512KiB time=00:00:06.08 bitrate= 689.9kbits/s speed=0.07x elapsed=0:01:26.85    \nframe=  304 fps=3.5 q=63.0 size=     512KiB time=00:00:06.08 bitrate= 689.9kbits/s speed=0.0696x elapsed=0:01:27.36    \nframe=  305 fps=3.5 q=48.0 size=     512KiB time=00:00:06.10 bitrate= 687.6kbits/s speed=0.0694x elapsed=0:01:27.88    \nframe=  307 fps=3.5 q=61.0 size=     512KiB time=00:00:06.14 bitrate= 683.1kbits/s speed=0.0695x elapsed=0:01:28.39    \nframe=  309 fps=3.5 q=62.0 size=     512KiB time=00:00:06.18 bitrate= 678.7kbits/s speed=0.0695x elapsed=0:01:28.90    \nframe=  310 fps=3.5 q=62.0 size=     512KiB time=00:00:06.20 bitrate= 676.5kbits/s speed=0.0693x elapsed=0:01:29.42    \nframe=  312 fps=3.5 q=63.0 size=     512KiB time=00:00:06.24 bitrate= 672.2kbits/s speed=0.0694x elapsed=0:01:29.94    \nframe=  313 fps=3.5 q=63.0 size=     512KiB time=00:00:06.26 bitrate= 670.0kbits/s speed=0.0692x elapsed=0:01:30.46    \nframe=  315 fps=3.5 q=63.0 size=     512KiB time=00:00:06.30 bitrate= 665.8kbits/s speed=0.0692x elapsed=0:01:30.98    \nframe=  315 fps=3.4 q=63.0 size=     512KiB time=00:00:06.30 bitrate= 665.8kbits/s speed=0.0688x elapsed=0:01:31.51    \nframe=  318 fps=3.5 q=63.0 size=     512KiB time=00:00:06.36 bitrate= 659.5kbits/s speed=0.0691x elapsed=0:01:32.02    \nframe=  319 fps=3.4 q=63.0 size=     512KiB time=00:00:06.38 bitrate= 657.4kbits/s speed=0.0689x elapsed=0:01:32.53    \nframe=  322 fps=3.5 q=63.0 size=     512KiB time=00:00:06.44 bitrate= 651.3kbits/s speed=0.0692x elapsed=0:01:33.04    \nframe=  323 fps=3.5 q=63.0 size=     512KiB time=00:00:06.46 bitrate= 649.3kbits/s speed=0.069x elapsed=0:01:33.56    \nframe=  325 fps=3.5 q=63.0 size=     512KiB time=00:00:06.50 bitrate= 645.3kbits/s speed=0.0691x elapsed=0:01:34.08    \nframe=  326 fps=3.4 q=63.0 size=     512KiB time=00:00:06.52 bitrate= 643.3kbits/s speed=0.0689x elapsed=0:01:34.59    \nframe=  327 fps=3.4 q=53.0 size=     512KiB time=00:00:06.54 bitrate= 641.3kbits/s speed=0.0688x elapsed=0:01:35.12    \nframe=  329 fps=3.4 q=60.0 size=     512KiB time=00:00:06.58 bitrate= 637.4kbits/s speed=0.0688x elapsed=0:01:35.64    \nframe=  330 fps=3.4 q=61.0 size=     512KiB time=00:00:06.60 bitrate= 635.5kbits/s speed=0.0686x elapsed=0:01:36.14    \nframe=  332 fps=3.4 q=61.0 size=     512KiB time=00:00:06.64 bitrate= 631.7kbits/s speed=0.0687x elapsed=0:01:36.66    \nframe=  334 fps=3.4 q=61.0 size=     512KiB time=00:00:06.68 bitrate= 627.9kbits/s speed=0.0687x elapsed=0:01:37.17    \nframe=  335 fps=3.4 q=62.0 size=     512KiB time=00:00:06.70 bitrate= 626.0kbits/s speed=0.0686x elapsed=0:01:37.69    \nframe=  337 fps=3.4 q=62.0 size=     512KiB time=00:00:06.74 bitrate= 622.3kbits/s speed=0.0686x elapsed=0:01:38.21    \nframe=  337 fps=3.4 q=62.0 size=     512KiB time=00:00:06.74 bitrate= 622.3kbits/s speed=0.0683x elapsed=0:01:38.74    \nframe=  340 fps=3.4 q=61.0 size=     512KiB time=00:00:06.80 bitrate= 616.8kbits/s speed=0.0685x elapsed=0:01:39.25    \nframe=  342 fps=3.4 q=61.0 size=     512KiB time=00:00:06.84 bitrate= 613.2kbits/s speed=0.0686x elapsed=0:01:39.77    \nframe=  343 fps=3.4 q=62.0 size=     512KiB time=00:00:06.86 bitrate= 611.4kbits/s speed=0.0684x elapsed=0:01:40.28    \nframe=  344 fps=3.4 q=54.0 size=     512KiB time=00:00:06.88 bitrate= 609.6kbits/s speed=0.0683x elapsed=0:01:40.80    \nframe=  346 fps=3.4 q=60.0 size=     512KiB time=00:00:06.92 bitrate= 606.1kbits/s speed=0.0683x elapsed=0:01:41.31    \nframe=  348 fps=3.4 q=60.0 size=     512KiB time=00:00:06.96 bitrate= 602.6kbits/s speed=0.0683x elapsed=0:01:41.83    \nframe=  349 fps=3.4 q=60.0 size=     512KiB time=00:00:06.98 bitrate= 600.9kbits/s speed=0.0682x elapsed=0:01:42.35    \nframe=  351 fps=3.4 q=60.0 size=     512KiB time=00:00:07.02 bitrate= 597.5kbits/s speed=0.0682x elapsed=0:01:42.86    \nframe=  352 fps=3.4 q=59.0 size=     512KiB time=00:00:07.04 bitrate= 595.8kbits/s speed=0.0681x elapsed=0:01:43.38    \nframe=  354 fps=3.4 q=60.0 size=     512KiB time=00:00:07.08 bitrate= 592.4kbits/s speed=0.0681x elapsed=0:01:43.90    \nframe=  355 fps=3.4 q=60.0 size=     512KiB time=00:00:07.10 bitrate= 590.7kbits/s speed=0.068x elapsed=0:01:44.43    \nframe=  357 fps=3.4 q=60.0 size=     512KiB time=00:00:07.14 bitrate= 587.4kbits/s speed=0.068x elapsed=0:01:44.94    \nframe=  359 fps=3.4 q=60.0 size=     512KiB time=00:00:07.18 bitrate= 584.2kbits/s speed=0.0681x elapsed=0:01:45.46    \nframe=  360 fps=3.4 q=60.0 size=     512KiB time=00:00:07.20 bitrate= 582.5kbits/s speed=0.0679x elapsed=0:01:45.98    \nframe=  361 fps=3.4 q=60.0 size=     512KiB time=00:00:07.22 bitrate= 580.9kbits/s speed=0.0678x elapsed=0:01:46.50    \nframe=  362 fps=3.4 q=50.0 size=     512KiB time=00:00:07.24 bitrate= 579.3kbits/s speed=0.0677x elapsed=0:01:47.02    \nframe=  364 fps=3.4 q=60.0 size=     512KiB time=00:00:07.28 bitrate= 576.1kbits/s speed=0.0677x elapsed=0:01:47.54    \nframe=  366 fps=3.4 q=61.0 size=     512KiB time=00:00:07.32 bitrate= 573.0kbits/s speed=0.0677x elapsed=0:01:48.05    \nframe=  367 fps=3.4 q=61.0 size=     512KiB time=00:00:07.34 bitrate= 571.4kbits/s speed=0.0676x elapsed=0:01:48.57    \nframe=  369 fps=3.4 q=61.0 size=     512KiB time=00:00:07.38 bitrate= 568.3kbits/s speed=0.0676x elapsed=0:01:49.11    \nframe=  371 fps=3.4 q=60.0 size=     512KiB time=00:00:07.42 bitrate= 565.3kbits/s speed=0.0677x elapsed=0:01:49.63    \nframe=  373 fps=3.4 q=60.0 size=     512KiB time=00:00:07.46 bitrate= 562.2kbits/s speed=0.0677x elapsed=0:01:50.15    \nframe=  375 fps=3.4 q=61.0 size=     512KiB time=00:00:07.50 bitrate= 559.2kbits/s speed=0.0677x elapsed=0:01:50.71    \nframe=  377 fps=3.4 q=59.0 size=     512KiB time=00:00:07.54 bitrate= 556.3kbits/s speed=0.0678x elapsed=0:01:51.25    \nframe=  379 fps=3.4 q=60.0 size=     512KiB time=00:00:07.58 bitrate= 553.3kbits/s speed=0.0678x elapsed=0:01:51.81    \nframe=  381 fps=3.4 q=63.0 size=     512KiB time=00:00:07.60 bitrate= 551.9kbits/s speed=0.0677x elapsed=0:01:52.33    \nframe=  384 fps=3.4 q=62.0 size=     512KiB time=00:00:07.68 bitrate= 546.1kbits/s speed=0.068x elapsed=0:01:52.99    \nframe=  384 fps=3.4 q=62.0 size=     512KiB time=00:00:07.68 bitrate= 546.1kbits/s speed=0.0676x elapsed=0:01:53.55    \nframe=  387 fps=3.4 q=58.0 size=     768KiB time=00:00:07.74 bitrate= 812.8kbits/s speed=0.0678x elapsed=0:01:54.10    \nframe=  390 fps=3.4 q=60.0 size=     768KiB time=00:00:07.80 bitrate= 806.6kbits/s speed=0.068x elapsed=0:01:54.64    \nframe=  394 fps=3.4 q=61.0 size=     768KiB time=00:00:07.88 bitrate= 798.4kbits/s speed=0.0684x elapsed=0:01:55.17    \nframe=  396 fps=3.4 q=53.0 size=     768KiB time=00:00:07.92 bitrate= 794.4kbits/s speed=0.0684x elapsed=0:01:55.71    \nframe=  399 fps=3.4 q=61.0 size=     768KiB time=00:00:07.98 bitrate= 788.4kbits/s speed=0.0687x elapsed=0:01:56.23    \nframe=  401 fps=3.4 q=61.0 size=     768KiB time=00:00:08.02 bitrate= 784.5kbits/s speed=0.0687x elapsed=0:01:56.75    \nframe=  403 fps=3.4 q=62.0 size=     768KiB time=00:00:08.06 bitrate= 780.6kbits/s speed=0.0687x elapsed=0:01:57.34    \nframe=  406 fps=3.4 q=61.0 size=     768KiB time=00:00:08.12 bitrate= 774.8kbits/s speed=0.0689x elapsed=0:01:57.86    \nframe=  407 fps=3.4 q=62.0 size=     768KiB time=00:00:08.14 bitrate= 772.9kbits/s speed=0.0688x elapsed=0:01:58.39    \nframe=  410 fps=3.4 q=61.0 size=     768KiB time=00:00:08.20 bitrate= 767.3kbits/s speed=0.069x elapsed=0:01:58.91    \nframe=  413 fps=3.5 q=62.0 size=     768KiB time=00:00:08.24 bitrate= 763.5kbits/s speed=0.069x elapsed=0:01:59.45    \nframe=  415 fps=3.5 q=62.0 size=     768KiB time=00:00:08.30 bitrate= 758.0kbits/s speed=0.0692x elapsed=0:01:59.99    \nframe=  418 fps=3.5 q=62.0 size=     768KiB time=00:00:08.34 bitrate= 754.4kbits/s speed=0.0692x elapsed=0:02:00.56    \nframe=  419 fps=3.5 q=62.0 size=     768KiB time=00:00:08.38 bitrate= 750.8kbits/s speed=0.0692x elapsed=0:02:01.11    \nframe=  422 fps=3.5 q=61.0 size=     768KiB time=00:00:08.44 bitrate= 745.4kbits/s speed=0.0694x elapsed=0:02:01.65    \nframe=  425 fps=3.5 q=63.0 size=     768KiB time=00:00:08.50 bitrate= 740.2kbits/s speed=0.0696x elapsed=0:02:02.21    \nframe=  425 fps=3.5 q=63.0 size=     768KiB time=00:00:08.50 bitrate= 740.2kbits/s speed=0.0692x elapsed=0:02:02.75    \nframe=  427 fps=3.5 q=62.0 size=     768KiB time=00:00:08.54 bitrate= 736.7kbits/s speed=0.0693x elapsed=0:02:03.27    \nframe=  429 fps=3.5 q=62.0 size=     768KiB time=00:00:08.58 bitrate= 733.3kbits/s speed=0.0693x elapsed=0:02:03.79    \nframe=  432 fps=3.5 q=63.0 size=     768KiB time=00:00:08.64 bitrate= 728.2kbits/s speed=0.0695x elapsed=0:02:04.33    \nframe=  434 fps=3.5 q=63.0 size=     768KiB time=00:00:08.68 bitrate= 724.8kbits/s speed=0.0695x elapsed=0:02:04.85    \nframe=  436 fps=3.5 q=63.0 size=     768KiB time=00:00:08.72 bitrate= 721.5kbits/s speed=0.0695x elapsed=0:02:05.41    \nframe=  439 fps=3.5 q=63.0 size=     768KiB time=00:00:08.78 bitrate= 716.6kbits/s speed=0.0697x elapsed=0:02:05.95    \nframe=  442 fps=3.5 q=63.0 size=     768KiB time=00:00:08.84 bitrate= 711.7kbits/s speed=0.0699x elapsed=0:02:06.53    \nframe=  445 fps=3.5 q=63.0 size=     768KiB time=00:00:08.88 bitrate= 708.5kbits/s speed=0.0699x elapsed=0:02:07.06    \nframe=  447 fps=3.5 q=63.0 size=     768KiB time=00:00:08.94 bitrate= 703.7kbits/s speed=0.07x elapsed=0:02:07.65    \nframe=  449 fps=3.5 q=63.0 size=     768KiB time=00:00:08.98 bitrate= 700.6kbits/s speed=0.0701x elapsed=0:02:08.19    \nframe=  453 fps=3.5 q=63.0 size=     768KiB time=00:00:09.04 bitrate= 696.0kbits/s speed=0.0702x elapsed=0:02:08.71    \nframe=  455 fps=3.5 q=63.0 size=     768KiB time=00:00:09.08 bitrate= 692.9kbits/s speed=0.0702x elapsed=0:02:09.33    \nframe=  456 fps=3.5 q=62.0 size=     768KiB time=00:00:09.12 bitrate= 689.9kbits/s speed=0.0702x elapsed=0:02:09.85    \nframe=  458 fps=3.5 q=62.0 size=     768KiB time=00:00:09.16 bitrate= 686.8kbits/s speed=0.0702x elapsed=0:02:10.39    \nframe=  461 fps=3.5 q=62.0 size=     768KiB time=00:00:09.20 bitrate= 683.9kbits/s speed=0.0703x elapsed=0:02:10.91    \nframe=  463 fps=3.5 q=62.0 size=     768KiB time=00:00:09.26 bitrate= 679.4kbits/s speed=0.0704x elapsed=0:02:11.57    \nframe=  466 fps=3.5 q=54.0 size=     768KiB time=00:00:09.30 bitrate= 676.5kbits/s speed=0.0704x elapsed=0:02:12.09    \nframe=  469 fps=3.5 q=61.0 size=     768KiB time=00:00:09.38 bitrate= 670.7kbits/s speed=0.0707x elapsed=0:02:12.75    \nframe=  471 fps=3.5 q=62.0 size=     768KiB time=00:00:09.42 bitrate= 667.9kbits/s speed=0.0707x elapsed=0:02:13.31    \nframe=  473 fps=3.5 q=62.0 size=     768KiB time=00:00:09.46 bitrate= 665.1kbits/s speed=0.0707x elapsed=0:02:13.83    \nframe=  475 fps=3.5 q=62.0 size=     768KiB time=00:00:09.50 bitrate= 662.3kbits/s speed=0.0707x elapsed=0:02:14.34    \nframe=  476 fps=3.5 q=62.0 size=     768KiB time=00:00:09.52 bitrate= 660.9kbits/s speed=0.0706x elapsed=0:02:14.88    \nframe=  476 fps=3.5 q=62.0 size=     768KiB time=00:00:09.52 bitrate= 660.9kbits/s speed=0.0703x elapsed=0:02:15.43    \nframe=  476 fps=3.5 q=62.0 size=     768KiB time=00:00:09.52 bitrate= 660.9kbits/s speed=0.07x elapsed=0:02:15.97    \nframe=  476 fps=3.5 q=62.0 size=     768KiB time=00:00:09.52 bitrate= 660.9kbits/s speed=0.0697x elapsed=0:02:16.64    \nframe=  476 fps=3.5 q=62.0 size=     768KiB time=00:00:09.52 bitrate= 660.9kbits/s speed=0.0694x elapsed=0:02:17.19    \nframe=  476 fps=3.5 q=62.0 size=     768KiB time=00:00:09.52 bitrate= 660.9kbits/s speed=0.0691x elapsed=0:02:17.76    \nframe=  476 fps=3.4 q=62.0 size=     768KiB time=00:00:09.52 bitrate= 660.9kbits/s speed=0.0688x elapsed=0:02:18.38    \nframe=  476 fps=3.4 q=62.0 size=     768KiB time=00:00:09.52 bitrate= 660.9kbits/s speed=0.0685x elapsed=0:02:18.98    \nframe=  476 fps=3.4 q=62.0 size=     768KiB time=00:00:09.52 bitrate= 660.9kbits/s speed=0.0682x elapsed=0:02:19.53    \n[out#0/webm @ 000002ed23c29a40] video:1285KiB audio:0KiB subtitle:0KiB other streams:0KiB global headers:0KiB muxing overhead: 0.312422%\nframe=  500 fps=3.6 q=53.0 Lsize=    1289KiB time=00:00:10.00 bitrate=1056.2kbits/s speed=0.0714x elapsed=0:02:20.01    \n",
  "seconds": 140.67494416236877,
  "probe_out": {}
}